<svg xmlns="http://www.w3.org/2000/svg" xmlns:xlink="http://www.w3.org/1999/xlink" viewBox="0 0 280 250" preserveAspectRatio="xMidYMid" style="display: block; shape-rendering: auto; background: transparent;" width="280" height="250"><style type="text/css">
  .ld-text text {
    text-anchor: middle;
    dominant-baseline: middle;
    font-size: 80px;
    opacity: 0;
    user-select: none;
    pointer-events: none;
  }
</style>
<g style="transform-origin:140px 125px;transform:scale(1)" class="ld-text">
<g transform="translate(140,125)">
  <g transform="scale(1.0000) translate(0,0)"><g class="path" style="opacity: 1; transform-origin: -87.56px 0.34px; transform: matrix3d(0.91, 0, 0, 0, 0, 0.91, 0, 0, 0, 0, 0.91, 0, 0, 0, 0, 1); animation: 1.0989s linear -0.634615s infinite normal forwards running animate-0qlr820xyaq; transform-box: view-box;"><path d="M18.48 55.24L18.48 6.92L1.36 6.92L1.36 0.68L42.32 0.68L42.32 6.92L25.20 6.92L25.20 55.24L18.48 55.24" style="fill: rgb(223, 223, 223);" transform="translate(-109.400,-27.620)"></path></g><g class="path" style="opacity: 1; transform-origin: -52.84px 7.62px; transform: matrix3d(0.91, 0, 0, 0, 0, 0.91, 0, 0, 0, 0, 0.91, 0, 0, 0, 0, 1); animation: 1.0989s linear -0.543956s infinite normal forwards running animate-0qlr820xyaq; transform-box: view-box;"><path d="M66 45.88L66 36.76Q64.40 36.84 62.96 36.92Q61.52 37 60.12 37.12Q58.72 37.24 57.60 37.40L57.60 37.40Q51.84 38.12 49.44 39.92Q47.04 41.72 47.04 45.08L47.04 45.08Q47.04 47.88 48.76 49.28Q50.48 50.68 53.28 50.68L53.28 50.68Q57.12 50.68 60.12 49.36Q63.12 48.04 66 45.88L66 45.88 zM66.72 55.88L65.92 51.48Q62.16 53.64 58.92 54.96Q55.68 56.28 51.92 56.28L51.92 56.28Q46.56 56.28 43.40 53.68Q40.24 51.08 40.24 45.08L40.24 45.08Q40.24 41.96 41.84 39.64Q43.44 37.32 46.04 35.76Q48.64 34.20 51.92 33.32Q55.20 32.44 58.64 32.20L58.64 32.20Q60.08 32.04 62.40 31.92Q64.72 31.80 66 31.72L66 31.72Q66 28.92 65.84 26.72Q65.68 24.52 64.88 22.96Q64.08 21.40 62.52 20.60Q60.96 19.80 58.08 19.80L58.08 19.80Q55.76 19.80 53.60 20.08Q51.44 20.36 49.76 20.68L49.76 20.68Q47.76 21.08 46.08 21.56L46.08 21.56L44.80 16.04Q46.80 15.56 49.12 15.16L49.12 15.16Q51.12 14.76 53.76 14.48Q56.40 14.20 59.44 14.20L59.44 14.20Q63.52 14.20 66.04 15.40Q68.56 16.60 69.96 18.64Q71.36 20.68 71.88 23.28Q72.40 25.88 72.40 28.76L72.40 28.76L72.40 47.96Q72.40 49.08 72.44 50.32Q72.48 51.56 72.60 52.76Q72.72 53.96 72.88 55.24L72.88 55.24L66.72 55.88" style="fill: rgb(223, 223, 223);" transform="translate(-109.400,-27.620)"></path></g><g class="path" style="opacity: 1; transform-origin: -22.52px -2.7px; transform: matrix3d(0.91, 0, 0, 0, 0, 0.91, 0, 0, 0, 0, 0.91, 0, 0, 0, 0, 1); animation: 1.0989s linear -0.453297s infinite normal forwards running animate-0qlr820xyaq; transform-box: view-box;"><path d="M83.68 55.24L83.68-4.68L90.08-5.40L90.08 55.24L83.68 55.24" style="fill: rgb(223, 223, 223);" transform="translate(-109.400,-27.620)"></path></g><g class="path" style="opacity: 1; transform-origin: 9.04px -2.7px; transform: matrix3d(0.91, 0, 0, 0, 0, 0.91, 0, 0, 0, 0, 0.91, 0, 0, 0, 0, 1); animation: 1.0989s linear -0.362637s infinite normal forwards running animate-0qlr820xyaq; transform-box: view-box;"><path d="M101.60 55.24L101.60-4.68L108-5.40L108 30.68L125.84 15L134.64 15L117.20 30.28L135.28 55.24L127.20 55.24L112.48 34.36L108 38.28L108 55.24L101.60 55.24" style="fill: rgb(223, 223, 223);" transform="translate(-109.400,-27.620)"></path></g><g class="path" style="opacity: 1; transform-origin: 35.48px 7.1px; transform: matrix3d(0.91, 0, 0, 0, 0, 0.91, 0, 0, 0, 0, 0.91, 0, 0, 0, 0, 1); animation: 1.0989s linear -0.271978s infinite normal forwards running animate-0qlr820xyaq; transform-box: view-box;"><path d="M141.68 55.24L141.68 14.92L148.08 14.20L148.08 55.24L141.68 55.24" style="fill: rgb(223, 223, 223);" transform="translate(-109.400,-27.620)"></path></g><g class="path" style="opacity: 1; transform-origin: 35.68px -24.14px; transform: matrix3d(0.91, 0, 0, 0, 0, 0.91, 0, 0, 0, 0, 0.91, 0, 0, 0, 0, 1); animation: 1.0989s linear -0.181319s infinite normal forwards running animate-0qlr820xyaq; transform-box: view-box;"><path d="M140.64 3.48L140.64 3.48Q140.64 1.64 141.88 0.40Q143.12-0.84 144.96-0.84L144.96-0.84Q146.88-0.84 148.20 0.40Q149.52 1.64 149.52 3.48L149.52 3.48Q149.52 5.32 148.20 6.56Q146.88 7.80 144.96 7.80L144.96 7.80Q143.12 7.80 141.88 6.56Q140.64 5.32 140.64 3.48" style="fill: rgb(223, 223, 223);" transform="translate(-109.400,-27.620)"></path></g><g class="path" style="opacity: 1; transform-origin: 61.84px -2.7px; transform: matrix3d(0.91, 0, 0, 0, 0, 0.91, 0, 0, 0, 0, 0.91, 0, 0, 0, 0, 1); animation: 1.0989s linear -0.0906593s infinite normal forwards running animate-0qlr820xyaq; transform-box: view-box;"><path d="M163.04 55.24L163.04 20.20L155.60 20.20L155.60 15L163.04 15Q163.04 9.40 163.80 5.52Q164.56 1.64 166.24-0.80Q167.92-3.24 170.56-4.32Q173.20-5.40 176.96-5.40L176.96-5.40Q180-5.40 182.64-4.40Q185.28-3.40 186.88-1.96L186.88-1.96L184.08 2.84Q182.48 1.64 180.76 0.92Q179.04 0.20 177.04 0.20L177.04 0.20Q174.40 0.20 172.88 1.36Q171.36 2.52 170.60 4.52Q169.84 6.52 169.64 9.20Q169.44 11.88 169.44 15L169.44 15L179.44 15L179.44 20.20L169.44 20.20L169.44 55.24L163.04 55.24" style="fill: rgb(223, 223, 223);" transform="translate(-109.400,-27.620)"></path></g><g class="path" style="opacity: 1; transform-origin: 91.48px 17.18px; transform: matrix3d(0.91, 0, 0, 0, 0, 0.91, 0, 0, 0, 0, 0.91, 0, 0, 0, 0, 1); animation: 1.0989s linear 0s infinite normal forwards running animate-0qlr820xyaq; transform-box: view-box;"><path d="M197.68 54.20L181.60 15L188.40 15L195.92 33.16Q197.04 35.80 197.96 38.44Q198.88 41.08 199.60 43.16L199.60 43.16Q200.48 45.64 201.12 47.96L201.12 47.96L201.20 47.96Q201.92 45.64 202.80 43.16L202.80 43.16Q203.52 41.08 204.48 38.44Q205.44 35.80 206.48 33.16L206.48 33.16L213.44 15L220.16 15L201.12 63Q200 65.96 198.20 68.12Q196.40 70.28 194.72 71.72L194.72 71.72Q192.72 73.40 190.56 74.60L190.56 74.60L187.44 69.08Q189.12 68.28 190.56 67.08L190.56 67.08Q191.84 66.04 193.12 64.48Q194.40 62.92 195.20 60.76L195.20 60.76L197.68 54.20" style="fill: rgb(223, 223, 223);" transform="translate(-109.400,-27.620)"></path></g></g><text dy="0.35em" fill="#dfdfdf" font-family="Actor" font-size="80">Talkify</text>
</g>
</g><style type="text/css">@keyframes animate-0qlr820xyaq { 0.00% {transform: translate(0.00px,0.00px) rotate(0.00deg) scale(0.91, 0.91) skew(0deg, 0.00deg) ;opacity: 1.00;}4.00% {transform: translate(0.00px,0.00px) rotate(0.00deg) scale(0.91, 0.91) ;}8.00% {animation-timing-function: cubic-bezier(0.69,0.60,0.35,0.27);transform: translate(0.00px,0.00px) rotate(0.00deg) scale(0.91, 0.91) ;}14.00% {transform: translate(0.00px,0.00px) rotate(0.00deg) scale(0.93, 0.93) ;}18.00% {transform: translate(0.00px,0.00px) rotate(0.00deg) scale(0.94, 0.94) ;}22.00% {animation-timing-function: cubic-bezier(0.67,0.66,0.34,0.33);transform: translate(0.00px,0.00px) rotate(0.00deg) scale(0.96, 0.96) ;}26.00% {transform: translate(0.00px,0.00px) rotate(0.00deg) scale(0.97, 0.97) ;}30.00% {transform: translate(0.00px,0.00px) rotate(0.00deg) scale(0.99, 0.99) ;}34.00% {animation-timing-function: cubic-bezier(0.65,0.71,0.32,0.38);transform: translate(0.00px,0.00px) rotate(0.00deg) scale(1.01, 1.01) ;}40.00% {animation-timing-function: cubic-bezier(0.64,0.74,0.31,0.41);transform: translate(0.00px,0.00px) rotate(0.00deg) scale(1.02, 1.02) ;}46.00% {animation-timing-function: cubic-bezier(0.60,0.91,0.23,0.63);transform: translate(0.00px,0.00px) rotate(0.00deg) scale(1.03, 1.03) ;}50.00% {transform: translate(0.00px,0.00px) rotate(0.00deg) scale(1.03, 1.03) ;}54.00% {transform: translate(0.00px,0.00px) rotate(0.00deg) scale(1.03, 1.03) ;}58.00% {animation-timing-function: cubic-bezier(0.69,0.60,0.35,0.27);transform: translate(0.00px,0.00px) rotate(0.00deg) scale(1.03, 1.03) ;}64.00% {transform: translate(0.00px,0.00px) rotate(0.00deg) scale(1.01, 1.01) ;}68.00% {transform: translate(0.00px,0.00px) rotate(0.00deg) scale(1.00, 1.00) ;}72.00% {animation-timing-function: cubic-bezier(0.67,0.66,0.34,0.33);transform: translate(0.00px,0.00px) rotate(0.00deg) scale(0.98, 0.98) ;}76.00% {animation-timing-function: cubic-bezier(0.66,0.68,0.33,0.35);transform: translate(0.00px,0.00px) rotate(0.00deg) scale(0.97, 0.97) ;}82.00% {animation-timing-function: cubic-bezier(0.65,0.71,0.32,0.38);transform: translate(0.00px,0.00px) rotate(0.00deg) scale(0.94, 0.94) ;}88.00% {animation-timing-function: cubic-bezier(0.65,0.73,0.31,0.40);transform: translate(0.00px,0.00px) rotate(0.00deg) scale(0.92, 0.92) ;}94.00% {animation-timing-function: cubic-bezier(0.63,0.80,0.28,0.48);transform: translate(0.00px,0.00px) rotate(0.00deg) scale(0.91, 0.91) ;}100.00% {animation-timing-function: cubic-bezier(0.63,0.80,0.28,0.48);transform: translate(0.00px,0.00px) rotate(0.00deg) scale(0.91, 0.91) ;} }</style><!-- [ldio] generated by https://loading.io --></svg>